# xmcd
#
# Track frame offsets: 
#        150
#        11591
#        26554
#        39618
#        59231
#        77082
#        93282
#        107441
#        122613
#        137524
#        152342
#        170032
#        182365
#        194993
#
# Disc length: 2731 seconds
#
# Revision: 1
# Processed by: cddbd v1.5.2PL0 Copyright (c) Steve Scherf et al.
# Submitted via: ExactAudioCopy v0.95b3
#
DISCID=b40aa90e
DTITLE=Andy Fairweather Low - Sweet Soulful Music
DYEAR=2006
DGENRE=Jazz
TTITLE0=One More Rocket
TTITLE1=Hymn 4 My Soul
TTITLE2=What'd You Take Me Be
TTITLE3=Ashes And Diamonds
TTITLE4=Bible Black Starless Sky
TTITLE5=Don't Stand
TTITLE6=Life Ain't No Competition
TTITLE7=Zazzy
TTITLE8=The Low Rider
TTITLE9=Unbroken Love
TTITLE10=I Don't Need
TTITLE11=Sweet Soulful Music
TTITLE12=Life Is Good
TTITLE13=When I Grow Too Old To Dream
EXTD=
EXTT0=
EXTT1=
EXTT2=
EXTT3=
EXTT4=
EXTT5=
EXTT6=
EXTT7=
EXTT8=
EXTT9=
EXTT10=
EXTT11=
EXTT12=
EXTT13=
PLAYORDER=
